<svg xmlns="http://www.w3.org/2000/svg" width="24" height="24" viewBox="0 0 24 24">
  <g id="Group_22538" data-name="Group 22538" transform="translate(18239 1744)">
    <rect id="Rectangle_2669" data-name="Rectangle 2669" width="24" height="24" transform="translate(-18239 -1744)" fill="none"/>
    <g id="Layer_2" data-name="Layer 2" transform="translate(-18235 -1740)">
      <g id="Layer_1" data-name="Layer 1">
        <path id="_1" data-name="1" d="M8,0A4,4,0,0,0,8,8H8A4,4,0,0,0,8,0Zm5.229,11.1c-.006.413-.028,1.2-.028,1.2a1.354,1.354,0,1,1-.909,0V10.747A14.632,14.632,0,0,0,8,10a14.753,14.753,0,0,0-4.3.747v2.217a1.334,1.334,0,0,1,.9,1.25v.72H3.7V14.22a.455.455,0,0,0-.9,0v.72H1.9v-.72a1.337,1.337,0,0,1,.9-1.25l-.072-1.854C1.191,11.781,0,12.742,0,14v2H16V14c0-1.27-1.212-2.237-2.769-2.9Zm-.48,2.925a.455.455,0,1,0-.4-.45.455.455,0,0,0,.4.45Z" fill="#016eff"/>
      </g>
    </g>
  </g>
</svg>
