<svg xmlns="http://www.w3.org/2000/svg" width="24" height="24" viewBox="0 0 24 24">
  <g id="Group_22537" data-name="Group 22537" transform="translate(18175 1744)">
    <rect id="Rectangle_2670" data-name="Rectangle 2670" width="24" height="24" transform="translate(-18175 -1744)" fill="none"/>
    <g id="Layer_2" data-name="Layer 2" transform="translate(-18171.051 -1740)">
      <g id="Layer_1" data-name="Layer 1" transform="translate(0.05)">
        <path id="_2" data-name="2" d="M8.047,0a4,4,0,1,0,4,4,4,4,0,0,0-4-4Zm0,6a2,2,0,1,1,1.417-.585A2,2,0,0,1,8.047,6Zm5.231,5.094c0,.412-.028,1.2-.028,1.2a1.355,1.355,0,0,1-.455,2.629A1.321,1.321,0,0,1,11.515,14H4.628a1.268,1.268,0,0,1,.019.219v.719h-.9v-.719A.426.426,0,0,0,3.681,14H2.915a.435.435,0,0,0-.066.219v.719h-.9v-.719a1.334,1.334,0,0,1,.9-1.25l-.071-1.85C1.238,11.78.05,12.742.05,14v2h16V14c0-1.269-1.214-2.237-2.775-2.9ZM8.047,10a14.774,14.774,0,0,0-4.3.745v2.127A12.164,12.164,0,0,1,8.047,12a12.061,12.061,0,0,1,3.739.664,1.4,1.4,0,0,1,.558-.368V10.745A14.672,14.672,0,0,0,8.047,10Z" transform="translate(-0.05)" fill="#a0a5b2"/>
        <path id="_1" data-name="1" d="M109.07,116.338a.457.457,0,1,0-.4-.454A.457.457,0,0,0,109.07,116.338Z" transform="translate(-96.322 -102.332)" fill="#a0a5b2"/>
      </g>
    </g>
  </g>
</svg>
