<svg xmlns="http://www.w3.org/2000/svg" width="1375.312" height="692.266" viewBox="0 0 1375.312 692.266">
  <g id="Group_22548" data-name="Group 22548" transform="translate(-32 -207.734)">
    <path id="Path_15255" data-name="Path 15255" d="M234.462,241.481c70.527-24.263,95.139-363.97,408.395-194.116,124.584,67.549,303.967-14.2,475.756,30.488,157.77,41.028,161.4,159.388,141.451,202-21.8,46.559,65.119,102.224,154.137,140.484,139.634,59.965,36.954,270.722-94.957,271.728s-1101.063-2.032-1101.063-2.032S-45.527,337.813,234.462,241.481Z" transform="translate(-73.656 207.737)" fill="#d3e4fe"/>
    <g id="Group_22547" data-name="Group 22547">
      <path id="Path_15313" data-name="Path 15313" d="M785.242,708.58s5.653-6.6.351-10.787c0,0-3.878-2.344-7.033-2.156,0,0,4.451,7.508,3.027,8.255s-4.387-8.725-4.387-8.725-8.819-.856-11.653.495c0,0,7.538,6.168,5.935,6.539s-9.734-5.688-9.734-5.688-8.191,1.4-7.765,6.415,3.264,6.553,4.506,6.43,8.517-2.908,8.675-1.889-4.219,4.348-7.285,4.5c0,0,5.787,6.385,9.63,4.54s4.174-4.758,6.573-5.856,4.451-1.093,3.462,0-5.327,2.2-6.7,4.629-2.6,4.061,1.375,3.462,10.451-3.512,10.733-6.845Z" transform="translate(-311.057 -88.202)" fill="#82b378"/>
      <path id="Path_15314" data-name="Path 15314" d="M762.18,711.37s22.292-.861,27.2,5.515a16.163,16.163,0,0,0,4.451,6.227l.519,1.424s-3.863-4.071-5.243-4.318C789.111,720.219,791.272,712.32,762.18,711.37Z" transform="translate(-315.207 -96.506)" fill="#82b378"/>
      <path id="Path_15315" data-name="Path 15315" d="M824.891,734.577A14.005,14.005,0,0,1,830,744.439l-.866.079s-1.528-6.539-4.293-9.1S824.891,734.577,824.891,734.577Z" transform="translate(-346.264 -107.971)" fill="#82b378"/>
      <path id="Path_15316" data-name="Path 15316" d="M851.128,682s-8.992-5.04-4.8-11.87c0,0,3.358-4.194,6.959-5.272,0,0-1.919,10.189,0,10.431s1.316-11.514,1.316-11.514,9.477-4.555,13.191-4.194c0,0-5.876,9.951-3.957,9.714s8.517-10.312,8.517-10.312,9.709-1.8,11.272,3.957-.96,8.631-2.4,8.992-10.673.242-10.436,1.439,6.479,3.116,9.956,2.038c0,0-3.838,9.476-8.873,9s-6.6-3.6-9.714-3.838-5.4.6-3.838,1.439,6.835.272,9.353,2.414,4.555,3.462-.119,4.422-13.072.356-14.749-3.24Z" transform="translate(-357.174 -69.912)" fill="#a8d29f"/>
      <path id="Path_15317" data-name="Path 15317" d="M882.782,670.87s-25.18,8.156-28.064,17.271a19.151,19.151,0,0,1-2.4,8.754v1.8s2.641-6.113,4.08-6.954C856.4,691.737,850.762,683.824,882.782,670.87Z" transform="translate(-360.764 -76.057)" fill="#82b378"/>
      <path id="Path_15318" data-name="Path 15318" d="M849.919,722.362a16.6,16.6,0,0,0-1.667,13.072l.989-.267s-.989-7.914,1.058-11.87S849.919,722.362,849.919,722.362Z" transform="translate(-358.361 -101.523)" fill="#82b378"/>
      <path id="Path_15319" data-name="Path 15319" d="M783.832,660.381s11.87-6.638,6.326-15.649c0,0-4.427-5.53-9.17-6.954,0,0,2.527,13.438,0,13.755s-1.726-15.179-1.726-15.179-12.5-6.014-17.4-5.52c0,0,7.745,13.122,5.213,12.805s-11.223-13.6-11.223-13.6-12.8-2.369-14.838,5.218,1.266,11.376,3.16,11.87,14.071.317,13.755,1.894-8.537,4.11-13.122,2.691c0,0,5.06,12.484,11.7,11.87s8.7-4.743,12.805-5.06,7.112.791,5.06,1.894-9.012.366-12.33,3.185-6.024,4.521.138,5.807,17.227.495,19.443-4.268Z" transform="translate(-304.186 -55.246)" fill="#a8d29f"/>
      <path id="Path_15320" data-name="Path 15320" d="M753.46,645.72s33.193,10.748,36.986,22.752a25.213,25.213,0,0,0,3.16,11.539v2.374s-3.462-8.062-5.371-9.17C788.235,673.225,795.664,662.794,753.46,645.72Z" transform="translate(-310.799 -63.346)" fill="#82b378"/>
      <path id="Path_15321" data-name="Path 15321" d="M833.01,713.564a21.9,21.9,0,0,1,2.2,17.237l-1.316-.351s1.281-10.421-1.4-15.664S833.01,713.564,833.01,713.564Z" transform="translate(-350.203 -96.89)" fill="#82b378"/>
      <path id="Path_15322" data-name="Path 15322" d="M805.321,767.681A23.246,23.246,0,0,1,782.1,744.46h46.443a23.246,23.246,0,0,1-23.221,23.221Z" transform="translate(-325.273 -113.25)" fill="#f1a34f"/>
      <path id="Path_15323" data-name="Path 15323" d="M817.5,767.5a23.246,23.246,0,0,0,26.1-23.043h-5.767A23.246,23.246,0,0,1,817.5,767.5Z" transform="translate(-343.166 -113.25)" fill="#ffb973"/>
      <path id="Path_15324" data-name="Path 15324" d="M781.45,790.874h47.086a2.864,2.864,0,0,0-2.864-2.864H784.314A2.864,2.864,0,0,0,781.45,790.874Z" transform="translate(-324.945 -135.26)" fill="#f1a34f"/>
      <rect id="Rectangle_2680" data-name="Rectangle 2680" width="47.739" height="0.712" transform="translate(504.035 631.923) rotate(180)" fill="#d86713"/>
      <path id="Path_15325" data-name="Path 15325" d="M652.784,780.427s5.441-1.805,8.042-1.261,10.753,4.338,10.931,5.149a2.969,2.969,0,0,1,0,1.4H652.784s-4.244-.826-4.946-3.324S652.784,780.427,652.784,780.427Z" transform="translate(-257.387 -130.738)" fill="#ffb27d"/>
      <path id="Path_15326" data-name="Path 15326" d="M513.325,1227.951a3.63,3.63,0,0,0,2.369,3.151h.025c2.527,1.108,6.761.861,11.341.242.589-.079,1.113-.144,1.588-.183l.371-.03h.282c4.56-.3,4.2,1.108,12.919,1.063,9.932-.054,13.29-3.4,13.75-4.827.381-1.207-3.957-2.147-8.834-3.225l-.707-.158-1.944-.445c-5.8-1.36-11.539-3.076-13.438-8.646-2.013-5.906-1.533-23.434-1.533-23.434H511.92s4.615,19.364,4.135,24.943c-.267,2.968-1.692,3.828-2.241,6.43-.04.183-.074.361-.109.544A17.174,17.174,0,0,0,513.325,1227.951Z" transform="translate(-188.725 -339.164)" fill="#ad7041"/>
      <path id="Path_15327" data-name="Path 15327" d="M471.305,817.555c1.484,8.334,3.6,16.945,5.441,25.9,2.968,14.408,5.188,29.706,2.9,46.181a57.409,57.409,0,0,0-.495,6.979c-.445,29.122,12.568,81.9,12.568,81.9a23.014,23.014,0,0,0,9.457,1.232c3.052-.148,7.731-2.117,7.731-2.117s1.232-32.723,1.306-76.722c.054-31.9,6.316-73.9,7.582-98.574.762-14.937-.9-34.835-.9-34.835s-25.937-20.857-35.25-10.184C472.453,767.858,465.751,786.376,471.305,817.555Z" transform="translate(-167.178 -118.209)" fill="#415da5"/>
      <path id="Path_15328" data-name="Path 15328" d="M487.273,943.654a57.411,57.411,0,0,0-.495,6.979c19.423-28.143,23.741-89.522,23.741-89.522l-21.347,10.332s-2.339,11.509-4.8,26C487.328,911.861,489.558,927.159,487.273,943.654Z" transform="translate(-174.801 -172.205)" fill="#355493"/>
      <path id="Path_15329" data-name="Path 15329" d="M401.276,1226.84a3.631,3.631,0,0,0,2.369,3.151h.025c2.527,1.108,6.761.861,11.341.242.589-.079,1.113-.144,1.588-.183l.371-.03h.282c4.56-.3,4.2,1.108,12.919,1.063,9.932-.054,13.29-3.4,13.745-4.827.386-1.207-3.957-2.147-8.829-3.225l-.707-.158-1.944-.445c-5.8-1.36-11.539-3.076-13.438-8.646-2.013-5.906.866-23.162.866-23.162l-16.3-1.36s.989,19.66.524,25.225c-.262,2.968-1.776,4.62-2.325,7.2-.04.183-.074.361-.109.544A17.173,17.173,0,0,0,401.276,1226.84Z" transform="translate(-132.793 -338.052)" fill="#ad7041"/>
      <path id="Path_15330" data-name="Path 15330" d="M404.813,1002.01a39.953,39.953,0,0,0,7.206,2.587c3.017.608,9.284-.574,9.284-.574a424.431,424.431,0,0,1,8.858-54.846c5.811-25.457,14.457-55.538,26.515-84.027,2.572-6.083,13.191-34.879,14.991-42.145,5.441-21.96,0-19.6,0-19.6l-47.625-5.589s-5.866,3.017-8.571,34.023c-.806,9.289-.905,49.381-2.127,56.983-1.152,7.2-2.5,13.181-4.09,17.069C400.391,927.613,404.813,1002.01,404.813,1002.01Z" transform="translate(-134.035 -140.218)" fill="#415da5"/>
      <path id="Path_15331" data-name="Path 15331" d="M401.279,1259.989a3.63,3.63,0,0,0,2.369,3.151h.025c2.671.955,6.84.752,11.331.213.589-.069,1.118-.119,1.6-.153l.371-.03h.282c4.56-.3,4.2,1.108,12.919,1.063,9.932-.054,13.29-3.4,13.745-4.827.386-1.207-3.957-2.147-8.829-3.225a29.343,29.343,0,0,1-15.006,2.661c-6.687-.643-13.517-3.324-18.3-3.991-.04.183-.074.361-.109.544A17.172,17.172,0,0,0,401.279,1259.989Z" transform="translate(-132.797 -371.201)" fill="#b84c42"/>
      <path id="Path_15332" data-name="Path 15332" d="M514.739,1259.989a3.63,3.63,0,0,0,2.369,3.151h.025c2.671.955,6.84.752,11.331.213.589-.069,1.118-.119,1.6-.153l.371-.03h.282c4.56-.3,4.2,1.108,12.919,1.063,9.932-.054,13.29-3.4,13.75-4.827.381-1.207-3.957-2.147-8.834-3.225a29.343,29.343,0,0,1-15.006,2.661c-6.687-.643-13.517-3.324-18.3-3.991-.04.183-.074.361-.109.544A17.17,17.17,0,0,0,514.739,1259.989Z" transform="translate(-190.139 -371.201)" fill="#b84c42"/>
      <path id="Path_15333" data-name="Path 15333" d="M466.528,477.663c1.607-13.137-2.473-34.157-28.716-30.8s-34.483,29.127-29.181,40.587-7.627,14.2-11.677,26.565c-3.462,10.584-4.694,23.741-10.322,29.626-18.172,18.993,17.44,48.233,38.875,42.09,39.073-11.227,44.1-12.9,42.714-43.6-.712-15.723-12.949-21.817-5.178-26.367C481.807,504.742,462.888,507.393,466.528,477.663Z" transform="translate(-122.877 37.337)" fill="#2b478b"/>
      <path id="Path_15334" data-name="Path 15334" d="M475.38,554.851l7.231,18.661,15.61.762,7.77-11.643c-8.819-6.682-8.443-19.477-8.013-23.944.1-.989.2-1.593.2-1.593l-19.507-5.935c-.237,5.154-.524,9.19-.836,12.365C476.72,554.589,475.38,554.851,475.38,554.851Z" transform="translate(-170.258 -5.448)" fill="#ffb27d"/>
      <path id="Path_15335" data-name="Path 15335" d="M489.529,576.868c-.989,0-18.033-3.462-46.789,3.893,0,0,15.748,72.152,10.387,85.754a143.512,143.512,0,0,0-7.384,25.67l58.041.717s-.816-46.675,1.86-63.2S489.529,576.868,489.529,576.868Z" transform="translate(-153.762 -28.137)" fill="#ffb27d"/>
      <path id="Path_15336" data-name="Path 15336" d="M440.967,658.181c-.851,9.556-9.773,31.377-7.844,36.027,2.023,4.882,4.832,7.355,10.985,8.769,4.239.989,10.06,1.444,18.3,1.855,17.484.871,36.219-1.325,38.772-9.64,1.222-3.991.752-19.428.1-26.555-1.34-14.744,1.484-35.908,1.88-49.6.336-11.42-6.553-37.411-6.553-37.411s-3.106-1.978-12.86-3.927c0,0-1.024,13.5-8.072,14.66-12.182,2.013-22-9.145-24.863-13.641,0,0-13.992,3.531-18.1,8.215-3.893,4.451,1.429,37.268,2.611,40.414,1.024,2.705,1.978,5.342,2.829,7.993A55.768,55.768,0,0,1,440.967,658.181Z" transform="translate(-147.986 -28.969)" fill="#7a97f3"/>
      <path id="Path_15337" data-name="Path 15337" d="M330.626,780.533s-5.441-1.786-8.042-1.246-10.753,4.3-10.931,5.1a2.878,2.878,0,0,0,0,1.385h18.973s4.244-.816,4.946-3.3S330.626,780.533,330.626,780.533Z" transform="translate(-87.467 -130.799)" fill="#ffb27d"/>
      <path id="Path_15338" data-name="Path 15338" d="M480.29,546.005c7.117-4.773,16.065-5.005,20.145-4.817.1-.989.2-1.593.2-1.593l-19.507-5.935C480.888,538.814,480.6,542.85,480.29,546.005Z" transform="translate(-172.738 -6.711)" fill="#e8945b"/>
      <path id="Path_15339" data-name="Path 15339" d="M502.078,506.454s-23.355,4.694-26.051-9.892-7.528-23.81,7.271-27.421,18.73,1.419,20.813,6.069S508.083,504.862,502.078,506.454Z" transform="translate(-169.09 26.519)" fill="#ffb27d"/>
      <path id="Path_15340" data-name="Path 15340" d="M467.789,462.168c3.957-4.451,9.655-5.307,13.814-5.238-2.508-3.037,7.567-9.694,19.092,1.662,4.946,4.892,4.214,14.507,1.553,20.086,0,0-4.08-11.959-11.514-14.566a16.262,16.262,0,0,1-4.664-2.7,32.271,32.271,0,0,1-6.39,9.491C472,479.315,473.5,496.28,473.5,496.28S460.884,469.938,467.789,462.168Z" transform="translate(-165.377 34.452)" fill="#2b478b"/>
      <path id="Path_15341" data-name="Path 15341" d="M517,529.459s.623,1.731,5.02.945c0,0,3.69-.658,3.353-2.6A12.085,12.085,0,0,0,517,529.459Z" transform="translate(-191.293 -3.663)" fill="#fff"/>
      <path id="Path_15342" data-name="Path 15342" d="M367.729,643.758c8.839-34.093,13.686-53.56,20.922-59.451,6.405-5.208,20.209-5.688,20.209-5.688a70.414,70.414,0,0,1-.495,12.291l17.009,32.362s8.7,17.217,11.791,36.046c2.334-18.7,4.654-36.046,4.654-36.046a195.344,195.344,0,0,0,2.844-21.2c-2.043-7.914-1.83-16.139-2.79-24.394l1.068.059c3.353.237,13.8,1.3,19.136,5.678,7.241,5.935,8.863,32.04,20.922,59.98,0,0,14.61,24.567,19.26,34.31a8.279,8.279,0,0,1-2.612,2.335,13.748,13.748,0,0,1-3.823,1.36s-26.357-25.952-28.088-30.057c-.569-1.35-3.759-6.084-7.716-13.048h0s-1.053,37.095,1.251,53.09a8.289,8.289,0,0,1-4.115,8.408c-16.277,9.195-65.045,34.241-74.116,9.892-1.019-2.725,16.816-49.054,14.343-59.085-.781-3.2-1.81-10.52-2.854-18.988-5.579,10.708-10.832,18.231-11.579,19.987-1.731,4.066-28.088,29.795-28.088,29.795a13.847,13.847,0,0,1-3.818-1.35,8.22,8.22,0,0,1-2.616-2.315C353.119,668.112,367.729,643.758,367.729,643.758Z" transform="translate(-106.098 -28.959)" fill="#e9f2ff"/>
      <path id="Path_15343" data-name="Path 15343" d="M463.6,579.38l15.595,44.751L463.615,609.4l1.177-4.58s-3.581.317-5.035-.623-4.837-23.815-4.837-23.815,3.17-.534,4.224-.653S463.6,579.38,463.6,579.38Z" transform="translate(-159.918 -29.818)" fill="#b2cbfd"/>
      <path id="Path_15344" data-name="Path 15344" d="M537.309,577.7s3.279,35.374-.089,45.582c0,0,9.645-15.268,7.834-18.429l-3.492-2.3s6.746-.875,5.48-4.753-6.687-19.6-6.687-19.6Z" transform="translate(-201.512 -28.969)" fill="#b2cbfd"/>
      <path id="Path_15345" data-name="Path 15345" d="M516.683,1159.544H145.14V1037.527l371.543-1.217Z" transform="translate(-3.354 -260.751)" fill="#699ff0"/>
      <rect id="Rectangle_2681" data-name="Rectangle 2681" width="371.543" height="31.907" transform="translate(141.785 677.975)" fill="#699ff0"/>
      <rect id="Rectangle_2682" data-name="Rectangle 2682" width="408.385" height="22.999" rx="11.499" transform="translate(531.396 677.975) rotate(180)" fill="#466aa5"/>
      <rect id="Rectangle_2683" data-name="Rectangle 2683" width="13.349" height="7.419" rx="2.65" transform="matrix(0.998, -0.061, 0.061, 0.998, 293.098, 586.144)" fill="#2b478b"/>
      <rect id="Rectangle_2684" data-name="Rectangle 2684" width="3.497" height="4.689" transform="matrix(-0.998, 0.061, -0.061, -0.998, 305.186, 591.38)" fill="#e9f2ff"/>
      <path id="Path_15346" data-name="Path 15346" d="M454.892,656.588l4.343-.267a.589.589,0,0,0,.549-.623h0a.589.589,0,0,0-.623-.549l-4.343.272a.584.584,0,0,0-.549.618h0A.589.589,0,0,0,454.892,656.588Z" transform="translate(-159.588 -68.111)" fill="#e9f2ff"/>
      <path id="Path_15347" data-name="Path 15347" d="M454.757,660.6l5.065-.312a.228.228,0,0,0,.213-.237h0a.222.222,0,0,0-.237-.208l-5.07.312a.223.223,0,0,0-.208.237h0a.218.218,0,0,0,.237.208Z" transform="translate(-159.715 -70.482)" fill="#e9f2ff"/>
      <path id="Path_15348" data-name="Path 15348" d="M454.847,662.061l5.065-.317a.222.222,0,0,0,.213-.232h0a.227.227,0,0,0-.237-.213l-5.07.312a.223.223,0,0,0-.208.237h0a.227.227,0,0,0,.237.213Z" transform="translate(-159.76 -71.22)" fill="#e9f2ff"/>
      <path id="Path_15349" data-name="Path 15349" d="M520.053,744.332a1.682,1.682,0,1,0-1.682,1.682,1.682,1.682,0,0,0,1.682-1.682Z" transform="translate(-191.135 -112.335)" fill="#2b478b"/>
      <path id="Path_15350" data-name="Path 15350" d="M520.053,765.682a1.682,1.682,0,1,0-1.682,1.682,1.682,1.682,0,0,0,1.682-1.682Z" transform="translate(-191.135 -123.125)" fill="#2b478b"/>
      <path id="Path_15351" data-name="Path 15351" d="M516.786,969.2,155.11,970.415V903.52H516.786Z" transform="translate(-8.393 -193.639)" fill="#afcdfb" opacity="0.9"/>
      <path id="Path_15352" data-name="Path 15352" d="M173.3,680.65l11.9,55.326H138.8L128.42,680.65Z" transform="translate(5.096 -81)" fill="#699ff0"/>
      <path id="Path_15353" data-name="Path 15353" d="M174.507,684.21l10.758,49.969H143.348L133.97,684.21Z" transform="translate(2.291 -82.799)" fill="#fff"/>
      <path id="Path_15354" data-name="Path 15354" d="M143.988,692.33h31.907a1.068,1.068,0,1,1,0,2.137H143.988a1.068,1.068,0,1,1,0-2.137Z" transform="translate(-2.232 -86.903)" fill="#699ff0"/>
      <path id="Path_15355" data-name="Path 15355" d="M147.288,702.51h31.9a1.068,1.068,0,0,1,0,2.137h-31.9a1.068,1.068,0,1,1,0-2.137Z" transform="translate(-3.9 -92.048)" fill="#699ff0"/>
      <path id="Path_15356" data-name="Path 15356" d="M149.408,712.28h31.907a1.073,1.073,0,0,1,0,2.142H149.408a1.073,1.073,0,0,1,0-2.142Z" transform="translate(-5.006 -96.986)" fill="#699ff0"/>
      <path id="Path_15357" data-name="Path 15357" d="M152.328,732.44h31.9a1.068,1.068,0,0,1,0,2.137h-31.9a1.068,1.068,0,0,1,0-2.137Z" transform="translate(-6.447 -107.175)" fill="#699ff0"/>
      <path id="Path_15358" data-name="Path 15358" d="M155.618,742.62h31.907a1.068,1.068,0,1,1,0,2.137H155.618a1.068,1.068,0,1,1,0-2.137Z" transform="translate(-8.109 -112.32)" fill="#699ff0"/>
      <path id="Path_15359" data-name="Path 15359" d="M157.678,752.4h31.9a1.068,1.068,0,0,1,0,2.137h-31.9a1.068,1.068,0,1,1,0-2.137Z" transform="translate(-9.15 -117.262)" fill="#699ff0"/>
      <rect id="Rectangle_2685" data-name="Rectangle 2685" width="1.326" height="23.914" transform="translate(196.891 630.855) rotate(-16.79)" fill="#a53d38"/>
      <path id="Path_15360" data-name="Path 15360" d="M266.544,784.818a4.57,4.57,0,0,1,4.624,3.8H261.92a4.57,4.57,0,0,1,4.624-3.8Z" transform="translate(-62.375 -133.646)" fill="#b64c41"/>
      <path id="Path_15361" data-name="Path 15361" d="M255.128,766.469a25.223,25.223,0,0,0,3.67-.317l-.049-.3c-1.771.3-6.479.757-7-.722a7.924,7.924,0,0,1,.287-3.3,33.292,33.292,0,0,0,.406-12.86c-.767-4.6-.2-5.995.415-6.356s1.484.312,1.513.317l.193-.237c-.045-.035-1.039-.821-1.86-.341-.989.594-1.2,2.834-.564,6.667a32.945,32.945,0,0,1-.406,12.766c-.312,1.583-.539,2.725-.277,3.462C251.809,766.211,253.476,766.469,255.128,766.469Z" transform="translate(-57.027 -112.106)" fill="#b64c41"/>
    </g>
    <g id="Patients" transform="translate(23.229 -1.66)">
      <rect id="Rectangle_2671" data-name="Rectangle 2671" width="270.447" height="190.732" transform="translate(1199.119 589.392) rotate(180)" fill="#b2cbfd"/>
      <rect id="Rectangle_2672" data-name="Rectangle 2672" width="251.721" height="170.904" transform="translate(1189.758 579.48) rotate(180)" fill="#fff"/>
      <rect id="Rectangle_2673" data-name="Rectangle 2673" width="1.79" height="190.732" transform="translate(1200.328 589.392) rotate(180)" fill="#466aa5"/>
      <path id="Path_15256" data-name="Path 15256" d="M2021.574,390.7a11.376,11.376,0,0,1,17.543,5.47q.534,1.548,1.039,3.269a.495.495,0,0,0,.777.213l.074-.074a8.6,8.6,0,0,0,2.834-6.351l-2.26-20.358a3.987,3.987,0,0,1,3.957-4.427h4.877a3.987,3.987,0,0,1,3.957,4.422l-2.266,20.486a8.5,8.5,0,0,0,2.9,6.43l.035.03a.495.495,0,0,0,.762-.228c.346-1.192.708-2.325,1.073-3.393a11.376,11.376,0,0,1,17.543-5.49c25.284,18.646,24.626,48.659,21.644,65.876a11.376,11.376,0,0,1-15.3,8.7l-16.4-6.267a11.376,11.376,0,0,1-6.766-7.157,93.787,93.787,0,0,1-4.451-38.252,7.562,7.562,0,0,0-1.41-5.173h0c-1.978-2.7-3.4-3.408-3.957-3.393-.648,0-2.221,1.143-4.12,5.03a7.671,7.671,0,0,0-.727,4.09c.989,10.347.178,23.068-4.521,37.723a11.375,11.375,0,0,1-6.776,7.142l-16.4,6.267a11.376,11.376,0,0,1-15.3-8.68C1996.953,439.375,1996.271,409.348,2021.574,390.7Z" transform="translate(-940.407 76.792)" fill="#d6716b"/>
      <path id="Path_15257" data-name="Path 15257" d="M1795.676,483.48h51.364a2.532,2.532,0,0,1,0,5.06h-51.364a2.532,2.532,0,0,1,0-5.06Z" transform="translate(-836.457 18.525)" fill="#d6716b"/>
      <path id="Path_15258" data-name="Path 15258" d="M1795.567,504.66h51.364a2.527,2.527,0,0,1,0,5.055h-51.364a2.527,2.527,0,0,1,0-5.055Z" transform="translate(-836.349 7.808)" fill="#d6716b"/>
      <path id="Path_15259" data-name="Path 15259" d="M1795.567,528.2h51.364a2.527,2.527,0,0,1,0,5.055h-51.364a2.527,2.527,0,0,1,0-5.055Z" transform="translate(-836.349 -4.103)" fill="#d6716b"/>
      <path id="Path_15260" data-name="Path 15260" d="M1795.677,551.73h51.364a2.532,2.532,0,0,1,0,5.06h-51.364a2.532,2.532,0,0,1,0-5.06Z" transform="translate(-836.459 -16.009)" fill="#d6716b"/>
      <path id="Path_15261" data-name="Path 15261" d="M1795.567,372.22h51.364a2.537,2.537,0,0,1,2.527,2.532h0a2.537,2.537,0,0,1-2.527,2.527h-51.364a2.537,2.537,0,0,1-2.527-2.527h0A2.537,2.537,0,0,1,1795.567,372.22Z" transform="translate(-836.349 74.881)" fill="#d6716b"/>
      <path id="Path_15262" data-name="Path 15262" d="M1795.567,393.4h51.364a2.537,2.537,0,0,1,2.527,2.527h0a2.537,2.537,0,0,1-2.527,2.532h-51.364a2.537,2.537,0,0,1-2.527-2.532h0a2.537,2.537,0,0,1,2.527-2.527Z" transform="translate(-836.349 64.177)" fill="#d6716b"/>
      <path id="Path_15263" data-name="Path 15263" d="M1795.567,416.94h51.364a2.537,2.537,0,0,1,2.527,2.527h0a2.537,2.537,0,0,1-2.527,2.532h-51.364a2.537,2.537,0,0,1-2.527-2.532h0A2.537,2.537,0,0,1,1795.567,416.94Z" transform="translate(-836.349 52.28)" fill="#d6716b"/>
      <path id="Path_15264" data-name="Path 15264" d="M1795.567,440.48h51.364a2.537,2.537,0,0,1,2.527,2.527h0a2.537,2.537,0,0,1-2.527,2.532h-51.364a2.537,2.537,0,0,1-2.527-2.532h0A2.537,2.537,0,0,1,1795.567,440.48Z" transform="translate(-836.349 40.382)" fill="#d6716b"/>
      <rect id="Rectangle_2674" data-name="Rectangle 2674" width="20.298" height="20.298" rx="7.69" transform="translate(1039.906 467.399) rotate(180)" fill="#d6716b"/>
      <rect id="Rectangle_2675" data-name="Rectangle 2675" width="20.298" height="20.298" rx="7.69" transform="translate(1039.906 522.3) rotate(180)" fill="#d6716b"/>
      <path id="Path_15265" data-name="Path 15265" d="M1940.151,496.029l-3.729,8.181-9.031-14.269,9.635,8.106Z" transform="translate(-904.341 15.254)" fill="#fff"/>
      <path id="Path_15266" data-name="Path 15266" d="M1940.151,384.4l-3.729,8.186-9.031-14.269,9.635,8.1Z" transform="translate(-904.341 71.798)" fill="#fff"/>
      <rect id="Rectangle_2676" data-name="Rectangle 2676" width="185.831" height="4.407" rx="2.203" transform="translate(1156.557 418.825) rotate(180)" fill="#d6716b"/>
      <path id="Path_15267" data-name="Path 15267" d="M4.522,0H375.361a4.526,4.526,0,0,1,4.522,4.53V112.64A25.2,25.2,0,0,1,354.7,137.865H0V4.531A4.527,4.527,0,0,1,4.522,0Z" transform="translate(1315.66 798.467) rotate(180)" fill="#a8d29f"/>
      <rect id="Rectangle_2679" data-name="Rectangle 2679" width="425.713" height="107.743" rx="50.3" transform="translate(889.422 789.769)" fill="#a8d29f"/>
      <path id="Path_15268" data-name="Path 15268" d="M2378.776,936.046h29.181V824.717a20.046,20.046,0,0,1,19.987-19.987h2.765a1.227,1.227,0,0,1,1.227,1.222V1039.9a1.919,1.919,0,0,1-1.914,1.909h-84.472a1.919,1.919,0,0,1-1.909-1.909V971.148A35.24,35.24,0,0,1,2378.776,936.046Z" transform="translate(-1115.165 -144.308)" fill="#66a357"/>
      <path id="Path_15269" data-name="Path 15269" d="M2263.076,806.469s27.851-2.671,37.506,13.354,0,76.317,8.171,87,17.806,17.172,17.454,29.765l-59.9.638s-52.66,1.894-52.279,29.953,0,76.584,0,76.584h-30.141s-1.355-124.54,29.152-131.855C2279.942,895.868,2263.076,806.469,2263.076,806.469Z" transform="translate(-1034.422 -145.103)" fill="#82b378"/>
      <path id="Path_15270" data-name="Path 15270" d="M1711.613,929.661l1.632.059V825.479a20.709,20.709,0,0,1,20.709-20.709h63.892s13.161,43.525,14.883,58.219,52.081,15.258,58.951,33.346,8.012,38.435,8.012,38.435h-25.566s-.989.336-2.705,1.078c-10.065,4.372-44.717,22.89-44.227,70.451v35.2H1680.711S1660.675,938.178,1711.613,929.661Z" transform="translate(-777.471 -144.329)" fill="#82b378"/>
      <path id="Path_15271" data-name="Path 15271" d="M2170.417,966.028s-5.257-1.6-7.1-.653-6.791,3.917-6.37,6.173,9.185,3.65,14.442.143S2170.417,966.028,2170.417,966.028Z" transform="translate(-1020.531 -225.165)" fill="#e49963"/>
      <path id="Path_15272" data-name="Path 15272" d="M2178.392,1234.611a3.462,3.462,0,0,1-1.979,3.18h0c-2.295,1.261-5.935.292-10.337.1a67.476,67.476,0,0,1-14.616,3.17c-9.4.8-12.859-2.072-13.408-3.378-.465-1.113,3.566-2.369,8.067-3.808l.658-.213c.6-.188,1.2-.386,1.8-.584,5.361-1.781,10.639-3.893,11.954-9.318,1.4-5.757-2.8-21.817-2.8-21.817l14.883-1.607s1.434,16.816,2.369,22.024c.495,2.79,1.771,5.01,2.512,7.419l.148.495A16.422,16.422,0,0,1,2178.392,1234.611Z" transform="translate(-1010.985 -344.25)" fill="#d38957"/>
      <path id="Path_15273" data-name="Path 15273" d="M2178.392,1264.682a3.462,3.462,0,0,1-1.979,3.18h0c-3.323,2.137-9.229-.836-18.844,3.6a55.193,55.193,0,0,1-5.881-.064c-2.918-.039-7.122.223-8.111.064-4.535-.732-5.213-2.968-5.525-3.7-.465-1.113,3.566-2.369,8.067-3.808a27.847,27.847,0,0,0,14.413,1.227c6.262-1.177,12.489-4.293,16.965-5.337l.148.495A16.427,16.427,0,0,1,2178.392,1264.682Z" transform="translate(-1010.985 -374.322)" fill="#2f5791"/>
      <path id="Path_15274" data-name="Path 15274" d="M2209.5,1274.92l-2.2,4.1h-4.768v-3Z" transform="translate(-1043.614 -381.943)" fill="#2f5791"/>
      <path id="Path_15275" data-name="Path 15275" d="M2238.012,975.56l-48.174-4.59s-73.735.331-80.62,10.065c0,0-13.166,9.125,1.716,46.844s32.356,75.411,32.356,75.411a34.013,34.013,0,0,0,10.584.742,41.428,41.428,0,0,0,5.663-.989s-3.358-56.28-10.8-78.181-9.729-17.642,3.438-16.426,55.514,10.95,74.976,8.517S2238.012,975.56,2238.012,975.56Z" transform="translate(-993.812 -228.326)" fill="#2c3a64"/>
      <path id="Path_15276" data-name="Path 15276" d="M2197.177,1234.611a3.462,3.462,0,0,1-1.978,3.18h0c-2.295,1.261-6.054-1.484-23.192,2.552-9.17,2.171-14.61-1.35-15.164-2.656-.465-1.113,3.561-2.369,8.067-3.808l.653-.213c.6-.188,1.2-.386,1.805-.584,5.361-1.781,10.634-3.893,11.955-9.318,1.395-5.757-2.8-21.817-2.8-21.817l14.883-1.607s1.434,16.816,2.369,22.024c.495,2.79,1.771,5.01,2.512,7.419q.079.252.148.495A16.619,16.619,0,0,1,2197.177,1234.611Z" transform="translate(-1020.499 -344.25)" fill="#e49963"/>
      <path id="Path_15277" data-name="Path 15277" d="M1864.377,1234.6a3.462,3.462,0,0,1-1.978,3.18h0c-2.29,1.261-6.316,1.39-10.7,1.2-.559,0-1.063-.04-1.513-.04h-.623c-4.333.1-3.878,1.4-12.113,2.107-9.4.8-12.86-2.072-13.409-3.378-.465-1.113,3.566-2.369,8.067-3.808l.658-.213c.6-.188,1.2-.386,1.8-.584,5.361-1.781,10.639-3.892,11.954-9.318,1.4-5.757-2.8-21.817-2.8-21.817l14.882-1.608s1.434,16.816,2.369,22.025c.495,2.79,1.771,5.01,2.508,7.419.054.168.1.336.153.495a16.418,16.418,0,0,1,.742,4.342Z" transform="translate(-852.018 -344.24)" fill="#e49963"/>
      <path id="Path_15278" data-name="Path 15278" d="M1864.377,1264.687a3.462,3.462,0,0,1-1.978,3.18h0c-2.438,1.128-6.4,1.291-10.688,1.172h-2.146c-4.333.1-3.878,1.4-12.113,2.107-9.4.8-12.859-2.072-13.408-3.378-.465-1.113,3.566-2.369,8.067-3.808a27.836,27.836,0,0,0,14.408,1.227c6.267-1.177,12.493-4.293,16.965-5.337.054.168.1.336.153.495A16.418,16.418,0,0,1,1864.377,1264.687Z" transform="translate(-852.02 -374.326)" fill="#c65447"/>
      <path id="Path_15279" data-name="Path 15279" d="M1669.326,1201.72c-.826,4.135-6.717,3.462-13.3,1.835s-5.015.307-14.383-.732-12.207-4.531-12.494-5.935c-.252-1.236,4.372-1.677,9.338-2.245.623-.069,1.251-.148,1.879-.227,5.6-.7,9.709-4.318,14.8-7.291,4.822-2.814,12.019-14.274,12.019-14.274l12.86.989s-6.741,10.243-9.348,14.695c-1.533,2.616-1.454,6.079-1.261,8.754A16.546,16.546,0,0,1,1669.326,1201.72Z" transform="translate(-753.369 -330.357)" fill="#e49963"/>
      <path id="Path_15280" data-name="Path 15280" d="M1656.026,1225.823c-6.583-1.607-5.015.307-14.383-.732s-12.207-4.531-12.494-5.935c-.252-1.236,4.372-1.677,9.338-2.245l.049.094a26.4,26.4,0,0,0,13.413,4.169c6.356.153,13.087-1.667,17.474-1.593a16.544,16.544,0,0,1-.1,4.392C1668.5,1228.123,1662.61,1227.43,1656.026,1225.823Z" transform="translate(-753.369 -352.625)" fill="#c65447"/>
      <path id="Path_15281" data-name="Path 15281" d="M1746.158,840.643s-3.057-7.5-6.43-7.8-14.081-1.978-14.838-.46,0,7.043,2.3,9.031,16.525,5.2,16.525,5.2Z" transform="translate(-801.617 -157.705)" fill="#e49963"/>
      <path id="Path_15282" data-name="Path 15282" d="M1809.93,1044.1l27.7,74.511a25.323,25.323,0,0,0,8.329-.767,35.766,35.766,0,0,0,8.052-3.917s-6.865-71.544-19.458-86.426S1809.93,1044.1,1809.93,1044.1Z" transform="translate(-844.895 -254.876)" fill="#365da4"/>
      <path id="Path_15283" data-name="Path 15283" d="M1868.2,978.17a26.3,26.3,0,0,1-17.776.638c-21.268-6.8-74.3-22.811-88.385-18.266-17.746,5.757-71.034,111.72-71.034,111.72a10.3,10.3,0,0,0,4.486,2.829c3.052,1.147,10.441,1.073,10.441,1.073s48.075-41.21,53.8-53.229,8.012-23.464,13.735-22.321,73.834,28.044,89.285,12.019,11.41-36.848,11.41-36.848Z" transform="translate(-784.633 -222.652)" fill="#466aa5"/>
      <path id="Path_15284" data-name="Path 15284" d="M1925.318,682.038c-1.271-2.626-2.691-7.285-3.383-15.59.1.826,1.538,11.3,5.564,17.232,16.544,10.881,48.258,47.13,47.63,54.005,0,0,11.173-18.948,11.376-19.062,0,0,20.6-26.214-3.813-41.21-12.414-7.627-12.365-17.415-11.831-25.922s-3.383-45.112-28.246-35.532c0,0-3.991-1.776-5.777-1.509a4.863,4.863,0,0,1,2.2,1.044c-2.884-.168-7,.045-10.441,1.978C1919.486,622.671,1911.33,669.144,1925.318,682.038Z" transform="translate(-899.526 -47.77)" fill="#b74b42"/>
      <path id="Path_15285" data-name="Path 15285" d="M1939.429,730.557c-.084.035,7.988,4.229,14.062,2.567,5.708-1.558,9.442-8.962,9.363-8.977-2.418-.495-3.116-3.8-3.066-18.087l-1.093.218-18.384,3.64s.42,5.782.43,11.232C1940.755,725.73,1940.478,730.068,1939.429,730.557Z" transform="translate(-910.441 -94.112)" fill="#e49963"/>
      <path id="Path_15286" data-name="Path 15286" d="M1941.21,710.14s.42,5.782.43,11.232c10.288-.287,15.728-9.674,17.954-14.873Z" transform="translate(-911.34 -94.328)" fill="#d68d5d"/>
      <path id="Path_15287" data-name="Path 15287" d="M1949.663,663.828s5.391-8.517,6.687-15.827c.92-5.2-1.726-24.473-21.095-21.7a26.311,26.311,0,0,0-10.926,4.164c-4.2,2.844-10.273,8.972-3.462,25.793l1.761,5.683Z" transform="translate(-899.503 -53.62)" fill="#b74b42"/>
      <path id="Path_15288" data-name="Path 15288" d="M1926.011,682.328s24.339.4,24.354-14.759,3.17-25.319-12.365-26.214-18.562,4.887-19.784,9.946S1919.68,681.834,1926.011,682.328Z" transform="translate(-899.562 -61.33)" fill="#e49963"/>
      <path id="Path_15289" data-name="Path 15289" d="M1947.262,640.74s-16.624-11.376-21.881-3.512c-1.593-1.365-4.451-2.354-8.191,2.2-5.643,6.84-.623,18.928-.623,18.928,2.32.272,2.864-7.676,4.076-11.534.915-2.913,3.957-5.886,5.416-7.172,2.127,4.788,7.968,16.243,16.015,18.3,10.228,2.631,14.665-.109,14.665-.109A28.849,28.849,0,0,1,1947.262,640.74Z" transform="translate(-897.838 -57.879)" fill="#b74b42"/>
      <path id="Path_15290" data-name="Path 15290" d="M1901.709,814.528c2.4-10.07-5.767-29.6-14.289-45.77-7.735-14.66-15.763-26.55-16.485-26.12-20.4,12.108-22.257,2.038-22.257,2.038s-18.532,2.473-23.775,11.495c-7.261,12.489-15.164,49.954-22.93,49.415-3.561-.257-39.429-13.735-39.429-13.735s-5.975,5.594-4.832,12.464c0,0,17.712,11.87,32.688,19.428,7.914,4,15.08,6.8,18.444,6.009,6.826-1.607,17.479-17.425,23.246-26.708l.04-.064c7.35,41.606-2.641,51.077,2.419,55.464,5.342,4.634,12.973-2.206,29.76,5.07,11.015,4.778,26.3,11.687,36.6,12.889,5.391.633,9.4-.307,10.733-3.957C1915.449,861.827,1897.134,833.7,1901.709,814.528Z" transform="translate(-818.275 -112.701)" fill="#699dee"/>
      <path id="Path_15291" data-name="Path 15291" d="M1935.862,704.452s-.455,1.924-5.248,1.627c0,0-4.021-.247-3.9-2.364A12.957,12.957,0,0,1,1935.862,704.452Z" transform="translate(-903.997 -92.663)" fill="#fff"/>
      <path id="Path_15292" data-name="Path 15292" d="M2019.74,918.248c-1.316,3.645-5.342,4.585-10.733,3.957-7.122-3.1-37.881-15.021-37.54-23.093.495-11.954,5.935-12.365,2.1-27.094-3.066-11.846,25.358-33.88,29.889-38.668,8.527,16.173,8.759,16.935,6.361,27.005C2005.238,879.555,2023.553,907.678,2019.74,918.248Z" transform="translate(-926.677 -158.577)" fill="#3b76ca"/>
      <path id="Path_15293" data-name="Path 15293" d="M1865.66,862.6c-5.757,9.308-16.411,25.126-23.246,26.708-3.363.791-10.525-2.008-18.444-6.009a47.975,47.975,0,0,0,16.851.92c5.935-.569,7.632-7.82,16.984-18.7C1863.874,858.5,1865.363,860.274,1865.66,862.6Z" transform="translate(-852.001 -172.286)" fill="#3b76ca"/>
      <path id="Path_15294" data-name="Path 15294" d="M1948.422,907.731s-5.154-4.006-10.016-3.052-7.251,4.293-7.058,5.821,2.765,5.816,6.484,6.2,14.309-2.29,14.309-2.29Z" transform="translate(-906.343 -194.532)" fill="#e49963"/>
      <path id="Path_15295" data-name="Path 15295" d="M1974.247,742.63s19.838,1.222,26.708,10.8c9.665,13.483,32.866,73.453,21.876,81.114-12.365,8.631-60.341-.257-60.341-.257s-1.484-6.835.569-10.139,35.117-8.651,36.635-10.179-19.082-29.76-19.082-34.34S1974.247,742.63,1974.247,742.63Z" transform="translate(-921.881 -112.667)" fill="#699dee"/>
      <path id="Path_15296" data-name="Path 15296" d="M2256.087,983.268l-45.182-3.818s-73.735.322-80.62,9.749c0,0-11.144,6.979,3.739,43.525s29.953,76.727,29.953,76.727a37.924,37.924,0,0,0,7.379.134c5.08-.416,6.771-2.062,6.771-2.062s-1.043-50-8.462-71.212-10.3-19.052,2.864-17.875,50.177,10.387,75.674,5.53C2267.473,1020.279,2256.087,983.268,2256.087,983.268Z" transform="translate(-1005.309 -232.612)" fill="#35488b"/>
      <path id="Path_15297" data-name="Path 15297" d="M2156.812,1267.8c.3.707.939,2.824,5.074,3.625H2176.5a28.587,28.587,0,0,1,12.192-2.6c2.8-.045,4.916.074,6.474-.925h0l.218-.129a3.4,3.4,0,0,0,1.756-3.052,16.63,16.63,0,0,0-.762-4.328q-.064-.252-.148-.495c-4.476,1.039-10.7,4.16-16.965,5.337a27.771,27.771,0,0,1-14.408-1.227C2160.373,1265.43,2156.342,1266.686,2156.812,1267.8Z" transform="translate(-1020.483 -374.352)" fill="#365da4"/>
      <path id="Path_15298" data-name="Path 15298" d="M2228.274,1274.93l-2.191,4.1h-4.773v-3Z" transform="translate(-1053.115 -381.948)" fill="#365da4"/>
      <path id="Path_15299" data-name="Path 15299" d="M2199.039,832.157c3.25-4.6,3.462-62.656,5.352-71.43s18.379-13.977,18.379-13.977-3.052,29.582-6.623,56.483c-2.884,21.762-3.225,42.491-5.441,43.683-4.946,2.671-19.235,13.473-25.689,12.553l-3.9-3.462a1.38,1.38,0,0,1,.307-2.265C2188.351,850.21,2196.625,835.585,2199.039,832.157Z" transform="translate(-1032.576 -114.767)" fill="#ee9849"/>
      <path id="Path_15300" data-name="Path 15300" d="M2252.054,617.564c3.086-2.473,7.563-2.166,10.446-1.978a4.861,4.861,0,0,0-2.2-1.044c1.785-.267,5.777,1.508,5.777,1.508s15.11-7.74,22.1,12.1c0,0-1.2-1.484-2.859-3.2,4.046,11.41-.045,28.687-12.786,31.748C2264.251,658.685,2220.449,642.947,2252.054,617.564Z" transform="translate(-1063.001 -47.795)" fill="#163560"/>
      <path id="Path_15301" data-name="Path 15301" d="M2263.409,730.557c-.084.035,7.988,4.229,14.062,2.567,5.708-1.558,9.442-8.962,9.363-8.977-2.418-.495-3.116-3.8-3.066-18.087l-1.093.218-18.384,3.64s.421,5.782.431,11.232C2264.735,725.73,2264.458,730.068,2263.409,730.557Z" transform="translate(-1074.444 -94.112)" fill="#e49963"/>
      <path id="Path_15302" data-name="Path 15302" d="M2265.19,710.14s.42,5.782.43,11.232c10.288-.287,15.729-9.674,17.954-14.873Z" transform="translate(-1075.34 -94.328)" fill="#d68d5d"/>
      <path id="Path_15303" data-name="Path 15303" d="M2273.646,663.828s5.391-8.517,6.687-15.827c.92-5.2-1.726-24.473-21.095-21.7a26.312,26.312,0,0,0-10.916,4.164c-4.2,2.844-10.273,8.972-3.487,25.793l1.761,5.683Z" transform="translate(-1063.518 -53.62)" fill="#163560"/>
      <path id="Path_15304" data-name="Path 15304" d="M2249.991,682.328s24.339.4,24.354-14.759,3.17-25.319-12.365-26.214-18.562,4.887-19.784,9.946S2243.66,681.834,2249.991,682.328Z" transform="translate(-1063.571 -61.33)" fill="#e49963"/>
      <path id="Path_15305" data-name="Path 15305" d="M2238.414,789.94c.426-1.731-3.215-3.027-4.11-1.484-1.672,2.883-2,6.519-2.671,9.4-1.909,8.27,0,19.586,0,19.586Z" transform="translate(-1057.912 -135.46)" fill="#e58638"/>
      <path id="Path_15306" data-name="Path 15306" d="M2241.169,639.429c3.754-4.55,6.6-3.561,8.191-2.2,5.258-7.854,21.881,3.512,21.881,3.512a28.96,28.96,0,0,0,9.477,17.108s-4.452,2.74-14.665.109c-8.047-2.067-13.888-13.522-16.015-18.3-1.444,1.286-4.5,4.259-5.441,7.172-1.212,3.858-1.756,11.806-4.075,11.534C2240.546,658.358,2235.526,646.27,2241.169,639.429Z" transform="translate(-1061.852 -57.883)" fill="#163560"/>
      <path id="Path_15307" data-name="Path 15307" d="M2259.842,704.452s-.455,1.924-5.248,1.627c0,0-4.021-.247-3.9-2.364A12.957,12.957,0,0,1,2259.842,704.452Z" transform="translate(-1067.992 -92.663)" fill="#fff"/>
      <path id="Path_15308" data-name="Path 15308" d="M2224.315,854.18s3.086,44.168-5.935,54.134l18.518-11.687Z" transform="translate(-1051.644 -169.087)" fill="#e58638"/>
      <path id="Path_15309" data-name="Path 15309" d="M2229.122,795.6c9.892,47.551,1.613,54.851,6.737,59.525,0,0,4.545,1.978,4.58,1.978,5.342,4.634,5.475-.989,22.257,6.3,8,3.462,18.25,8.067,27.2,10.782a55.993,55.993,0,0,0,9.4,2.107c5.4.633,9.4-.307,10.733-3.957,3.813-10.589-14.5-38.712-9.922-57.9.04-.168.074-.336.109-.495a20.759,20.759,0,0,0,.223-5.718c-.855-10.708-7.617-26.268-14.62-39.568-7.736-14.66-15.763-26.55-16.485-26.12-20.4,12.108-22.257,2.038-22.257,2.038S2225.759,779.386,2229.122,795.6Z" transform="translate(-1057.104 -112.651)" fill="#ee9849"/>
      <path id="Path_15310" data-name="Path 15310" d="M2249.09,893.153h0c5.342,4.634,7.1-.312,23.884,6.964,8,3.462,18.251,8.067,27.2,10.782,4.575.8,7.983,1.484,9.4,2.107,5.4.633,9.4-.307,10.733-3.957,3.813-10.589-14.5-38.712-9.922-57.9.04-.168.074-.336.109-.495a17.613,17.613,0,0,0,.223-5.718c-.965-8.136-6.925-16.96-13.725-29.819-4.531,4.793-38.579-.762-30.527,46.557C2268.918,876.178,2251.207,881.9,2249.09,893.153Z" transform="translate(-1067.378 -149.359)" fill="#e58638"/>
      <path id="Path_15311" data-name="Path 15311" d="M2231.333,976.842s-7.5-1.781-10.941-.381-10.3,4.946-9.665,6.87,8.774,2.923,12.212,1.014,5.975.495,10.174-.89S2231.333,976.842,2231.333,976.842Z" transform="translate(-1047.756 -230.655)" fill="#e49963"/>
      <path id="Path_15312" data-name="Path 15312" d="M2278.614,742.63s27.7.366,32.644,13.725,3.438,60.287-3.813,74.407-48.471,33.2-53.041,33.959-7.419-6.3-7.251-7.058,43.312-35.68,43.119-39.3S2278.614,742.63,2278.614,742.63Z" transform="translate(-1066.269 -112.691)" fill="#ee9849"/>
    </g>
    <g id="Doctor" transform="translate(-444.063 -0.557)">
      <rect id="Rectangle_2677" data-name="Rectangle 2677" width="300" height="523" transform="translate(544.063 375.557)" fill="#deedff"/>
      <rect id="Rectangle_2678" data-name="Rectangle 2678" width="257.059" height="500.669" transform="translate(565.533 397.888)" fill="#b2cbfd"/>
      <path id="Path_15362" data-name="Path 15362" d="M1132.036,1217.249s-6.494,6.014-5.208,10.307,7.127,7.127,7.914,12.365,3.957,8.077,6.811,8.077h13.587s2.1-3.68-2.968-4.788-6.979-7.246-6.662-12.949a100.413,100.413,0,0,0-.495-13.3l-10.767-2.562Z" transform="translate(-499.58 -351.187)" fill="#2c3a64"/>
      <path id="Path_15363" data-name="Path 15363" d="M1299.378,1262a2.3,2.3,0,0,0,.425.148h36.348c-.317-1.286-1.484-3.734-5.737-4.427-5.678-.915-15.511-4.219-17.707-11.475-.069-.233-.134-.495-.188-.717-1.741-7.755-14.408,2.379-14.408,2.379s-.04.307-.094.836C1297.726,1251.593,1296.974,1260.8,1299.378,1262Z" transform="translate(-586.193 -365.445)" fill="#2c3a64"/>
      <path id="Path_15364" data-name="Path 15364" d="M1305.893,858.813s-1.924,24-4.184,52.858c-3.071,39.192-6.771,87.336-7.137,96.447-.628,15.827-3.165,41.17-3.165,41.17s-6.014,6.019-18.053,3.462c0,0-10.723-36.165-13.789-74.427-.045-.628-.094-1.256-.143-1.889-2.849-38.95-7.281-120.974-7.281-120.974Z" transform="translate(-563.152 -169.778)" fill="#35488b"/>
      <path id="Path_15365" data-name="Path 15365" d="M1305.893,858.844s-1.924,24-4.184,52.858l-42.145,66.682c-.044-.628-.094-1.256-.144-1.889-2.849-38.95-7.28-120.974-7.28-120.974Z" transform="translate(-563.152 -169.712)" fill="#2c3a64"/>
      <path id="Path_15366" data-name="Path 15366" d="M1239.185,851.994s-34.676,86.926-57.477,127.78-29.928,52.254-29.928,52.254-13.062-5.223-14.249-8.784c0,0,8.72-78.869,23.988-98.094,8.626-10.837,18.78-43.48,19.24-54.856s3.086-33.964,3.086-33.964Z" transform="translate(-505.15 -160.11)" fill="#35488b"/>
      <path id="Path_15367" data-name="Path 15367" d="M1285.53,507.384c-12.924,4.076-35.28-6.924-35.28-6.924s10.08-7.562,11.208-23.246c0-.218.035-.43.045-.648.064-1.162.079-2.374.04-3.625l3.536,2.849,13.24,10.659s-.678,5.258-.95,14.027a27.815,27.815,0,0,1,5.05,3.551A20.361,20.361,0,0,1,1285.53,507.384Z" transform="translate(-562.172 23.87)" fill="#f4ac75"/>
      <path id="Path_15368" data-name="Path 15368" d="M1221.26,524.22s34.127-5.386,56.651,9.506c0,0,15.283,99.909,1.978,109.38s-58.625,0-58.625,0Z" transform="translate(-547.525 -1.618)" fill="#f4ac75"/>
      <path id="Path_15369" data-name="Path 15369" d="M1250.341,749.01H1188.63s7.172-105.3,9.219-130.935c1.662-20.773,5.178-70.644,6.43-88.741.3-4.219.495-6.712.495-6.712l14.734-2.513,25.3,32.8s4,87.46,3.858,101.244,1.593,67.5,1.677,76.529S1250.341,749.01,1250.341,749.01Z" transform="translate(-530.993 -0.074)" fill="#e9f2ff"/>
      <path id="Path_15370" data-name="Path 15370" d="M1302.21,557.2l5.535,196.1h29.073s-1.345-128.977-1.444-140.827,3.16-62.893-5.935-70.817c-7.587-6.623-25.838-13.052-25.838-13.052Z" transform="translate(-588.486 -4.373)" fill="#e9f2ff"/>
      <path id="Path_15371" data-name="Path 15371" d="M1303.813,519.46s8.289,5.713,7.978,7.76a38.316,38.316,0,0,1-1.449,5.292l-5.07-1.029,4.278,3.012s-4.852,14.146-7.34,18.083Z" transform="translate(-588.456 0.339)" fill="#e9f2ff"/>
      <path id="Path_15372" data-name="Path 15372" d="M1200.822,630.062c3.63-22.306,45.567,10.654,42.08,39.909-6.43,54.124-33.915,114.47-54.272,130.9Z" transform="translate(-530.986 -51.967)" fill="#b2cbfd" opacity="0.2"/>
      <path id="Path_15373" data-name="Path 15373" d="M1272.723,480.094a1.568,1.568,0,0,0-.183-.6l.228-.049,3.576-.777,13.24,10.673s-.569,4.946-.989,14.052C1288.565,503.35,1274.959,495.818,1272.723,480.094Z" transform="translate(-573.44 20.974)" fill="#c97c47"/>
      <path id="Path_15374" data-name="Path 15374" d="M1294.972,466.661s-23.048-.643-22.425-14.991-1.929-24.087,12.81-24.285,17.36,5.406,18.3,10.243S1300.982,466.458,1294.972,466.661Z" transform="translate(-573.454 46.916)" fill="#f4ac75"/>
      <path id="Path_15375" data-name="Path 15375" d="M1265.221,441.115a5.315,5.315,0,0,0,5.376-2.379c2.379-3.17,6.336-15.367,11.564-16.159s12.123,3.086,14.343.871c3.24-3.235,7.419-8.527,7.419-8.527s-25.937-18.488-36.289-9.932S1253.662,426.065,1265.221,441.115Z" transform="translate(-566.14 59.385)" fill="#2c3a64"/>
      <path id="Path_15376" data-name="Path 15376" d="M1329.971,559.908c-.495-8.9-5.337-23.36-5.381-23.5l1.385.613c.173.579,4.026,13.789,4.526,22.865Z" transform="translate(-599.783 -8.232)" fill="#2c3a64"/>
      <path id="Path_15377" data-name="Path 15377" d="M1257.208,611.072c-.495-.495-12.365-11.915-9.823-19.908a7.977,7.977,0,0,1,4.728-5.248c1.8-.653,5.99-1.335,8.156,0,3.957,2.473,5.935,9.358,6.529,20.773l-.495.025c-.7-13.557-4.194-18.463-6.8-19.571-3.284-1.39-9.041-.816-10.881,4.451-1.246,3.615,1.2,8.675,3.462,12.147,2.527,3.858,5.272,7.276,5.3,7.305Z" transform="translate(-560.526 -32.887)" fill="#2c3a64"/>
      <path id="Path_15378" data-name="Path 15378" d="M1267.232,637.185h0a1.172,1.172,0,0,1-1.652,0l-.816-.811a1.177,1.177,0,0,1,0-1.652h0a1.177,1.177,0,0,1,1.657,0l.811.811a1.172,1.172,0,0,1,0,1.652Z" transform="translate(-569.317 -57.781)" fill="#b64c41"/>
      <path id="Path_15379" data-name="Path 15379" d="M1285.407,629.637h0a1.172,1.172,0,0,1-1.167-1.172v-1.147a1.167,1.167,0,0,1,1.167-1.167h0a1.172,1.172,0,0,1,1.172,1.167v1.147A1.177,1.177,0,0,1,1285.407,629.637Z" transform="translate(-579.35 -53.618)" fill="#b64c41"/>
      <path id="Path_15380" data-name="Path 15380" d="M1329.39,580.68a3.17,3.17,0,1,1,3.171,3.17,3.171,3.171,0,0,1-3.171-3.17Z" transform="translate(-602.214 -29.017)" fill="#2c3a64"/>
      <path id="Path_15381" data-name="Path 15381" d="M1332.78,582.272a1.612,1.612,0,1,1,1.612,1.612A1.612,1.612,0,0,1,1332.78,582.272Z" transform="translate(-603.926 -30.609)" fill="#d6716b"/>
      <path id="Path_15382" data-name="Path 15382" d="M1304.3,782.524c0-.2-2.018-19.952-1.439-37.095.242-7.251.035-15.783-.163-24.028-.282-11.766-.915-23.093.035-30.482,1.627-12.642,1.3-70.1.633-76.327-.648-6.074,0-12.731.574-14.739S1301.93,586.6,1301.9,586.5l.307-.079c.124.47,2.968,11.509,2.32,13.636a46.129,46.129,0,0,0-.841,14.516c.668,6.232,1.949,63.68.316,76.336-.945,7.365-1.266,18.745-.989,30.5.2,8.255.406,16.787.163,24.047-.579,17.148,2.334,36.912,2.354,37.095Z" transform="translate(-588.293 -33.609)" fill="#b2cbfd"/>
      <path id="Path_15383" data-name="Path 15383" d="M1400.422,664s7.81,13.443-.381,16.98-9.071-.193-9.071-.193Z" transform="translate(-633.402 -72.768)" fill="#e9f2ff"/>
      <path id="Path_15384" data-name="Path 15384" d="M1215.841,599a11.356,11.356,0,0,1,1.1,4.807,32.88,32.88,0,0,1-1.261,5.97s-48.2,10.258-57.571,1.682c-10.06-9.209,8.6-78.4,16.589-85.175,3.462-2.918,10.7-4.7,17.4-5.762,3.695-.589,7.216-.959,9.838-1.187,2.7-.232,4.451-.307,4.451-.307l-1.088,4.016-4.224,15.624-4.946,18.221s-14.734,30.329-15.209,33.183S1215.841,599,1215.841,599Z" transform="translate(-514.063 0.538)" fill="#e9f2ff"/>
      <path id="Path_15385" data-name="Path 15385" d="M1260.247,547.827s-12.3-5.352-21.129-10.228c-5.767-3.18-8.72-9.145-9.328-16.762,3.695-.589,7.216-.96,9.838-1.187l.677.228,2.681,3.462Z" transform="translate(-551.807 0.244)" fill="#b2cbfd" opacity="0.2"/>
      <path id="Path_15386" data-name="Path 15386" d="M1272.9,549.111,1253.751,512.6s-7.142,1.449-9.541,3.695c0,0,1.217,10.98,2.171,13.414,0,0,3.695-.425,4.224-.109a21.187,21.187,0,0,1-2.325,3.067S1264.924,540.421,1272.9,549.111Z" transform="translate(-559.107 3.809)" fill="#e9f2ff"/>
      <path id="Path_15387" data-name="Path 15387" d="M1246.816,554.595c-1.311-2.888-12.86-27.515-9.892-33.781l1.128-.143c-2.226,4.748,5.767,26.154,9.239,33.826Z" transform="translate(-555.154 -0.273)" fill="#2c3a64"/>
      <path id="Path_15388" data-name="Path 15388" d="M1308.8,630.788a1.533,1.533,0,1,1,.447,1.087A1.538,1.538,0,0,1,1308.8,630.788Z" transform="translate(-591.785 -55.186)" fill="#b2cbfd" opacity="0.5"/>
      <path id="Path_15389" data-name="Path 15389" d="M1308.8,804.888a1.538,1.538,0,1,1,1.533,1.538A1.538,1.538,0,0,1,1308.8,804.888Z" transform="translate(-591.785 -143.247)" fill="#b2cbfd" opacity="0.5"/>
      <path id="Path_15390" data-name="Path 15390" d="M1310.36,725.323a1.538,1.538,0,1,1,1.538,1.533,1.538,1.538,0,0,1-1.538-1.533Z" transform="translate(-592.576 -103)" fill="#b2cbfd" opacity="0.5"/>
      <path id="Path_15391" data-name="Path 15391" d="M1310.36,880.538a1.538,1.538,0,1,1,1.538,1.538,1.538,1.538,0,0,1-1.538-1.538Z" transform="translate(-592.576 -181.512)" fill="#b2cbfd" opacity="0.5"/>
      <path id="Path_15392" data-name="Path 15392" d="M1276,536.41s5.332,2.621,13.943.989l-.989,23.741Z" transform="translate(-575.19 -8.232)" fill="#7a97f3"/>
      <path id="Path_15393" data-name="Path 15393" d="M1315.945,593.19l49.855,4.466L1335.377,651.7l-46.927-2.7Z" transform="translate(-581.581 -36.964)" fill="#35488b"/>
      <path id="Path_15394" data-name="Path 15394" d="M1353.33,585.4s0-7.642,4.244-7.112,5.485,8.2,5.485,8.2Z" transform="translate(-614.339 -29.395)" fill="#b2cbfd"/>
      <path id="Path_15395" data-name="Path 15395" d="M1365.14,596.276l-49.856-4.466-27.495,55.815.336.692,27.495-55.815,49.861,4.471Z" transform="translate(-581.247 -36.266)" fill="#7a97f3"/>
      <path id="Path_15396" data-name="Path 15396" d="M1361.91,578.31s7.043,3.462,4.555,14.541-5.594,17.163-3.784,23.716l33.583,3.086s-3.65-8.715.406-17.539,1.172-18.9-2.547-19.784Z" transform="translate(-618.721 -29.432)" fill="#e9f2ff"/>
      <path id="Path_15397" data-name="Path 15397" d="M1391.534,675.671s-5.1-6.138-4.051-10.575,4.862-5.441,7.182-3.893,5.708,5.164,5.075,7.914S1394.1,676.947,1391.534,675.671Z" transform="translate(-631.564 -71.008)" fill="#f4ac75"/>
      <path id="Path_15398" data-name="Path 15398" d="M1271.024,680.809s8.651-3.8,12.612-2.7,9.3,1.9,9.719,3.329-2.849,6.7-7.711,6.969-13.418,2.537-15.476,0S1271.024,680.809,1271.024,680.809Z" transform="translate(-571.874 -79.802)" fill="#f4ac75"/>
      <path id="Path_15400" data-name="Path 15400" d="M998.8,476.557h0a3.017,3.017,0,0,0,3.022-3.022V439.027A3.022,3.022,0,0,0,998.8,436h0a3.022,3.022,0,0,0-3.022,3.027V473.51a3.017,3.017,0,0,0,3.022,3.047Z" transform="translate(-433.268 42.555)" fill="#466aa5"/>
      <path id="Path_15401" data-name="Path 15401" d="M998.8,1076.842h0a3.017,3.017,0,0,0,3.022-3.022v-34.483a3.022,3.022,0,0,0-3.022-3.027h0a3.022,3.022,0,0,0-3.022,3.027v34.483a3.017,3.017,0,0,0,3.022,3.022Z" transform="translate(-433.268 -261.106)" fill="#466aa5"/>
      <circle id="Ellipse_350" data-name="Ellipse 350" cx="9.249" cy="9.249" r="9.249" transform="translate(795.791 604.702) rotate(-13.28)" fill="#699ff0"/>
      <circle id="Ellipse_351" data-name="Ellipse 351" cx="9.249" cy="9.249" r="9.249" transform="translate(797.631 688.095)" fill="#699ff0"/>
      <path id="Path_15402" data-name="Path 15402" d="M1487.311,788.746h0a3.611,3.611,0,0,0,3.611-3.611V705.011a3.611,3.611,0,0,0-3.611-3.611h0a3.611,3.611,0,0,0-3.611,3.611v80.125A3.611,3.611,0,0,0,1487.311,788.746Z" transform="translate(-680.406 -91.718)" fill="#466aa5"/>
    </g>
  </g>
</svg>
