<svg xmlns="http://www.w3.org/2000/svg" viewBox="0 0 193.36 29.46"><defs><style>.cls-1{fill:#2e9fe2;}.cls-2{fill:#118acb;}</style></defs><g id="Layer_2" data-name="Layer 2"><g id="Layer_1-2" data-name="Layer 1"><g id="USE_THIS" data-name="USE THIS"><path class="cls-1" d="M28.25,11a1.23,1.23,0,1,0-.85-.36A1.18,1.18,0,0,0,28.25,11Z"/><circle class="cls-1" cx="23.97" cy="9.8" r="1.21"/><path class="cls-1" d="M19.69,8.56a1.21,1.21,0,1,0,.85.36A1.22,1.22,0,0,0,19.69,8.56Z"/><circle class="cls-1" cx="14.71" cy="1.24" r="1.21"/><path class="cls-1" d="M9.74,0a1.2,1.2,0,0,0-1.2,1.21,1.19,1.19,0,0,0,.35.85,1.17,1.17,0,0,0,.85.35,1.21,1.21,0,0,0,.86-.35A1.23,1.23,0,0,0,11,1.21,1.25,1.25,0,0,0,10.6.35,1.25,1.25,0,0,0,9.74,0Z"/><circle class="cls-1" cx="9.71" cy="5.49" r="1.21"/><path class="cls-1" d="M9.74,8.56a1.21,1.21,0,0,0,0,2.42,1.21,1.21,0,0,0,0-2.42Z"/><circle class="cls-1" cx="5.46" cy="9.8" r="1.21"/><path class="cls-1" d="M1.24,8.56a1.21,1.21,0,0,0,0,2.42,1.21,1.21,0,0,0,0-2.42Z"/><circle class="cls-1" cx="1.21" cy="14.74" r="1.21"/><path class="cls-1" d="M1.24,18.45a1.25,1.25,0,0,0-.86.35,1.25,1.25,0,0,0-.35.86,1.21,1.21,0,0,0,2.06.85,1.21,1.21,0,0,0,.35-.85,1.25,1.25,0,0,0-.35-.86A1.25,1.25,0,0,0,1.24,18.45Z"/><circle class="cls-1" cx="5.46" cy="19.69" r="1.21"/><path class="cls-1" d="M9.74,18.45a1.2,1.2,0,0,0-1.2,1.21,1.2,1.2,0,0,0,1.2,1.2A1.2,1.2,0,0,0,11,19.66a1.2,1.2,0,0,0-1.21-1.21Z"/><circle class="cls-1" cx="9.71" cy="23.94" r="1.21"/><path class="cls-1" d="M9.74,27a1.21,1.21,0,0,0,0,2.42,1.21,1.21,0,0,0,0-2.42Z"/><circle class="cls-1" cx="14.71" cy="28.25" r="1.21"/><path class="cls-1" d="M19.69,18.45a1.2,1.2,0,0,0-1.21,1.21,1.21,1.21,0,1,0,2.41,0,1.2,1.2,0,0,0-1.2-1.21Z"/><circle class="cls-1" cx="23.97" cy="19.69" r="1.21"/><path class="cls-1" d="M28.25,18.45A1.21,1.21,0,0,0,27,19.66a1.21,1.21,0,0,0,2.42,0,1.21,1.21,0,0,0-1.21-1.21Z"/><circle class="cls-1" cx="28.22" cy="14.74" r="1.21"/><circle class="cls-1" cx="19.66" cy="5.49" r="1.21"/><path class="cls-1" d="M19.69,0a1.25,1.25,0,0,0-.86.35,1.25,1.25,0,0,0-.35.86,1.23,1.23,0,0,0,.35.85,1.22,1.22,0,0,0,1.71,0,1.23,1.23,0,0,0,.35-.85,1.25,1.25,0,0,0-.35-.86A1.25,1.25,0,0,0,19.69,0Z"/><path class="cls-1" d="M19.69,27a1.21,1.21,0,1,0,.85.36A1.22,1.22,0,0,0,19.69,27Z"/><circle class="cls-1" cx="19.66" cy="23.94" r="1.21"/><path class="cls-2" d="M32.5,10.69a.92.92,0,0,1,0-1.84.91.91,0,0,1,.65.27.92.92,0,0,1,0,1.3A.91.91,0,0,1,32.5,10.69Z"/><path class="cls-2" d="M32.5,20.58a.92.92,0,0,1,0-1.84.91.91,0,0,1,.65.27.92.92,0,0,1,0,1.3A.91.91,0,0,1,32.5,20.58Z"/><circle class="cls-2" cx="32.47" cy="14.74" r="0.92"/><circle class="cls-2" cx="23.91" cy="5.49" r="0.92"/><path class="cls-2" d="M23.94,2.13A.92.92,0,0,1,23,1.21a.91.91,0,0,1,.27-.65.92.92,0,0,1,1.3,0,.91.91,0,0,1,.27.65.92.92,0,0,1-.92.92Z"/><path class="cls-2" d="M23.94,29.14a.92.92,0,1,1,.65-.27A.93.93,0,0,1,23.94,29.14Z"/><circle class="cls-2" cx="23.91" cy="23.94" r="0.92"/><path class="cls-1" d="M36.81,10.4a.6.6,0,0,1-.44-.18.63.63,0,0,1,0-.9.65.65,0,0,1,.44-.18.67.67,0,0,1,.45.18.63.63,0,0,1,0,.9A.63.63,0,0,1,36.81,10.4Z"/><path class="cls-1" d="M36.81,20.29a.65.65,0,0,1-.63-.63.64.64,0,0,1,.19-.45.61.61,0,0,1,.44-.19.65.65,0,0,1,.64.64.61.61,0,0,1-.19.44A.64.64,0,0,1,36.81,20.29Z"/><circle class="cls-1" cx="36.79" cy="14.74" r="0.63"/><circle class="cls-1" cx="28.22" cy="5.49" r="0.63"/><path class="cls-1" d="M28.25,1.84a.64.64,0,0,1-.45-.19.65.65,0,0,1-.18-.44A.67.67,0,0,1,27.8.76a.63.63,0,0,1,.9,0,.67.67,0,0,1,.18.45.65.65,0,0,1-.18.44A.64.64,0,0,1,28.25,1.84Z"/><path class="cls-1" d="M28.25,28.85a.63.63,0,0,1-.45-.18.63.63,0,1,1,.9,0A.63.63,0,0,1,28.25,28.85Z"/><circle class="cls-1" cx="28.22" cy="23.94" r="0.63"/><path class="cls-1" d="M41.13,10.12a.34.34,0,0,1-.25-.11.34.34,0,0,1,0-.48.33.33,0,0,1,.25-.1.33.33,0,0,1,.24.1.34.34,0,0,1,0,.48A.34.34,0,0,1,41.13,10.12Z"/><path class="cls-1" d="M41.13,20a.33.33,0,0,1-.25-.1.35.35,0,0,1-.1-.24.39.39,0,0,1,.1-.25.37.37,0,0,1,.25-.1.37.37,0,0,1,.24.1.39.39,0,0,1,.1.25.35.35,0,0,1-.1.24A.33.33,0,0,1,41.13,20Z"/><path class="cls-1" d="M41.1,15.09a.35.35,0,0,1-.35-.35.35.35,0,0,1,.35-.34.34.34,0,0,1,.34.34A.35.35,0,0,1,41.1,15.09Z"/><path class="cls-1" d="M32.53,5.83a.34.34,0,0,1-.34-.34.35.35,0,0,1,.34-.35.35.35,0,0,1,.35.35A.35.35,0,0,1,32.53,5.83Z"/><path class="cls-1" d="M32.56,1.55a.31.31,0,0,1-.24-.1.31.31,0,0,1-.1-.24A.34.34,0,0,1,32.8,1a.36.36,0,0,1,.11.25.32.32,0,0,1-.11.24A.31.31,0,0,1,32.56,1.55Z"/><path class="cls-1" d="M32.56,28.57a.34.34,0,0,1-.34-.35A.34.34,0,0,1,32.8,28a.32.32,0,0,1,.11.24.36.36,0,0,1-.11.25A.35.35,0,0,1,32.56,28.57Z"/><path class="cls-1" d="M32.53,24.28a.34.34,0,0,1-.34-.34.35.35,0,0,1,.34-.35.35.35,0,0,1,.35.35A.35.35,0,0,1,32.53,24.28Z"/><path d="M64.33,6.89,61.22,18.82H57.7L55.8,11l-2,7.85H50.31l-3-11.93h3.11l1.72,8.69,2.12-8.69h3.2l2,8.69L61.2,6.89Z"/><path d="M74.68,14.78H68.11a2,2,0,0,0,.56,1.35,1.77,1.77,0,0,0,1.24.47,1.53,1.53,0,0,0,1.51-.92h3.09a4.18,4.18,0,0,1-.85,1.68,4.34,4.34,0,0,1-1.56,1.17A4.88,4.88,0,0,1,70,19a5,5,0,0,1-2.48-.6,4.16,4.16,0,0,1-1.7-1.7,5.18,5.18,0,0,1-.61-2.58,5.29,5.29,0,0,1,.6-2.58,4.07,4.07,0,0,1,1.69-1.7A5.11,5.11,0,0,1,70,9.2a5,5,0,0,1,2.45.58,4.08,4.08,0,0,1,1.67,1.65,5,5,0,0,1,.61,2.5A6.41,6.41,0,0,1,74.68,14.78Zm-2.92-1.62A1.5,1.5,0,0,0,71.25,12,1.89,1.89,0,0,0,70,11.53a1.84,1.84,0,0,0-1.24.43,1.89,1.89,0,0,0-.62,1.2Z"/><path d="M80.35,9.61A3.68,3.68,0,0,1,82.1,9.2a3.88,3.88,0,0,1,2.12.6,4,4,0,0,1,1.51,1.7,5.74,5.74,0,0,1,.55,2.56,5.83,5.83,0,0,1-.55,2.58,4.23,4.23,0,0,1-1.51,1.72,3.88,3.88,0,0,1-2.12.6,3.59,3.59,0,0,1-1.75-.4,3.19,3.19,0,0,1-1.18-1.06v1.32h-2.9V6.24h2.9v4.44A3,3,0,0,1,80.35,9.61Zm2.37,2.74a2,2,0,0,0-1.49-.62,2,2,0,0,0-1.47.63,2.39,2.39,0,0,0-.6,1.72,2.39,2.39,0,0,0,.6,1.72,2,2,0,0,0,1.47.63,2,2,0,0,0,1.48-.64,2.39,2.39,0,0,0,.61-1.73A2.38,2.38,0,0,0,82.72,12.35Z"/><path d="M99.18,7.64a5.4,5.4,0,0,1,2.19,2.1,6.22,6.22,0,0,1,.77,3.12,6.26,6.26,0,0,1-.77,3.11,5.39,5.39,0,0,1-2.2,2.11,7,7,0,0,1-3.29.74H91.41V6.89h4.47A6.93,6.93,0,0,1,99.18,7.64Zm-.92,7.77a3.38,3.38,0,0,0,.92-2.55,3.44,3.44,0,0,0-.92-2.57,3.47,3.47,0,0,0-2.56-.92H94.32v6.94H95.7A3.51,3.51,0,0,0,98.26,15.41Z"/><path d="M105.58,18.36a4.27,4.27,0,0,1-1.75-1.7,5.09,5.09,0,0,1-.64-2.58,5,5,0,0,1,.65-2.57,4.29,4.29,0,0,1,1.77-1.71,5.2,5.2,0,0,1,2.51-.6,5.27,5.27,0,0,1,2.52.6,4.29,4.29,0,0,1,1.77,1.71,5,5,0,0,1,.64,2.57,5.07,5.07,0,0,1-.65,2.58,4.37,4.37,0,0,1-1.79,1.7,5.27,5.27,0,0,1-2.52.6A5.2,5.2,0,0,1,105.58,18.36Zm3.93-2.53a2.43,2.43,0,0,0,.58-1.75,2.47,2.47,0,0,0-.56-1.75,1.84,1.84,0,0,0-1.41-.61,1.87,1.87,0,0,0-1.41.6,2.51,2.51,0,0,0-.56,1.76,2.52,2.52,0,0,0,.55,1.75,1.78,1.78,0,0,0,1.39.61A1.89,1.89,0,0,0,109.51,15.83Z"/><path d="M114.63,11.5a4.11,4.11,0,0,1,1.68-1.7,5,5,0,0,1,2.47-.6,4.69,4.69,0,0,1,3,.94,4.44,4.44,0,0,1,1.57,2.63h-3.1a1.49,1.49,0,0,0-1.51-1.09,1.52,1.52,0,0,0-1.27.62,2.88,2.88,0,0,0-.48,1.78,2.88,2.88,0,0,0,.48,1.78,1.52,1.52,0,0,0,1.27.62,1.49,1.49,0,0,0,1.51-1.09h3.1A4.5,4.5,0,0,1,121.76,18a4.7,4.7,0,0,1-3,.95,5,5,0,0,1-2.47-.6,4.11,4.11,0,0,1-1.68-1.7,5.18,5.18,0,0,1-.61-2.58A5.18,5.18,0,0,1,114.63,11.5Z"/><path d="M130.17,16.36v2.46h-1.48a3.59,3.59,0,0,1-2.46-.77,3.2,3.2,0,0,1-.89-2.52V11.75h-1.15V9.34h1.15V7h2.91V9.34h1.9v2.41h-1.9v3.81a.81.81,0,0,0,.2.61,1,1,0,0,0,.68.19Z"/><path d="M133.6,18.36a4.22,4.22,0,0,1-1.75-1.7,5,5,0,0,1-.64-2.58,5,5,0,0,1,.64-2.57,4.35,4.35,0,0,1,1.77-1.71,5.27,5.27,0,0,1,2.52-.6,5.2,5.2,0,0,1,2.51.6,4.29,4.29,0,0,1,1.77,1.71,5,5,0,0,1,.65,2.57,5,5,0,0,1-.66,2.58,4.35,4.35,0,0,1-1.78,1.7,5.31,5.31,0,0,1-2.53.6A5.16,5.16,0,0,1,133.6,18.36Zm3.92-2.53a2.39,2.39,0,0,0,.59-1.75,2.47,2.47,0,0,0-.57-1.75,1.93,1.93,0,0,0-2.81,0,2.47,2.47,0,0,0-.56,1.76,2.52,2.52,0,0,0,.55,1.75,1.78,1.78,0,0,0,1.38.61A1.88,1.88,0,0,0,137.52,15.83Z"/><path d="M146.8,9.69a3.27,3.27,0,0,1,1.7-.45v3.07h-.8a2.44,2.44,0,0,0-1.63.47,2.05,2.05,0,0,0-.55,1.64v4.4h-2.9V9.34h2.9v1.58A3.85,3.85,0,0,1,146.8,9.69Z"/><path class="cls-1" d="M165.41,7.09V18.82h-1.19V9.46L160,18.82h-.87L155,9.49v9.33H153.8V7.09h1.26l4.54,10.17,4.54-10.17Z"/><path class="cls-1" d="M176.48,14.64h-7.7a3.66,3.66,0,0,0,.51,1.8,2.92,2.92,0,0,0,1.21,1.13,3.44,3.44,0,0,0,1.63.39,3.21,3.21,0,0,0,1.94-.57,2.59,2.59,0,0,0,1.05-1.51h1.26a3.9,3.9,0,0,1-1.46,2.22,4.44,4.44,0,0,1-2.79.86,4.69,4.69,0,0,1-2.35-.59,4.11,4.11,0,0,1-1.62-1.66,5.22,5.22,0,0,1-.59-2.53,5.25,5.25,0,0,1,.58-2.53A4,4,0,0,1,169.76,10a4.86,4.86,0,0,1,2.37-.57,4.61,4.61,0,0,1,2.32.57A4.09,4.09,0,0,1,176,11.54a4.5,4.5,0,0,1,.53,2.17C176.51,14.11,176.5,14.43,176.48,14.64Zm-1.59-2.74a2.84,2.84,0,0,0-1.18-1.1,3.58,3.58,0,0,0-1.63-.37,3.25,3.25,0,0,0-2.27.85,3.38,3.38,0,0,0-1,2.39h6.53A3.32,3.32,0,0,0,174.89,11.9Z"/><path class="cls-1" d="M187.05,14.64h-7.7a3.88,3.88,0,0,0,.51,1.8,3,3,0,0,0,1.21,1.13,3.47,3.47,0,0,0,1.63.39,3.26,3.26,0,0,0,2-.57,2.62,2.62,0,0,0,1-1.51H187a3.94,3.94,0,0,1-1.45,2.22,4.49,4.49,0,0,1-2.8.86,4.67,4.67,0,0,1-2.34-.59,4.07,4.07,0,0,1-1.63-1.66,5.22,5.22,0,0,1-.58-2.53,5.36,5.36,0,0,1,.57-2.53A4.08,4.08,0,0,1,180.34,10a4.82,4.82,0,0,1,2.36-.57A4.59,4.59,0,0,1,185,10a4.09,4.09,0,0,1,1.53,1.56,4.39,4.39,0,0,1,.54,2.17A7.41,7.41,0,0,1,187.05,14.64Zm-1.59-2.74a2.84,2.84,0,0,0-1.18-1.1,3.58,3.58,0,0,0-1.63-.37,3.23,3.23,0,0,0-2.26.85,3.39,3.39,0,0,0-1,2.39h6.53A3.32,3.32,0,0,0,185.46,11.9Z"/><path class="cls-1" d="M190.81,10.54v5.77a1.67,1.67,0,0,0,.32,1.17,1.59,1.59,0,0,0,1.14.32h1.09v1h-1.28a2.64,2.64,0,0,1-1.87-.58,2.63,2.63,0,0,1-.61-1.93V10.54h-1.29v-1h1.29V7.21h1.21V9.54h2.55v1Z"/></g></g></g></svg>